<svg xmlns="http://www.w3.org/2000/svg" viewBox="0 0 1020 326" width="1020" height="326" role="img" aria-label="V2 调度策略对照实验">
<title>V2 调度策略对照实验</title>
<rect x="0.0" y="0.0" width="1020.0" height="326.0" fill="#ffffff" rx="0"/>
<text x="0.0" y="14.0" font-family='"PingFang SC","Hiragino Sans GB","Noto Sans CJK SC",system-ui,-apple-system,sans-serif' font-size="12" fill="#141a22" text-anchor="start" font-weight="600">V2 controlled experiment: two dispatch strategies over the same initial schedule and event sequence</text><text x="0.0" y="29.0" font-family='"PingFang SC","Hiragino Sans GB","Noto Sans CJK SC",system-ui,-apple-system,sans-serif' font-size="10" fill="#898781" text-anchor="start" font-weight="400">10 random seeds × 6.1 events per seed = 61 events; route provider fixture; policy version 2026-09-14-v2</text><rect x="0.0" y="55.0" width="9.0" height="9.0" fill="#2a78d6" rx="2"/><text x="13.0" y="62.0" font-family='"PingFang SC","Hiragino Sans GB","Noto Sans CJK SC",system-ui,-apple-system,sans-serif' font-size="10.5" fill="#52514e" text-anchor="start" font-weight="400">Baseline: nearest feasible insertion</text><rect x="238.9" y="55.0" width="9.0" height="9.0" fill="#eb6834" rx="2"/><text x="251.9" y="62.0" font-family='"PingFang SC","Hiragino Sans GB","Noto Sans CJK SC",system-ui,-apple-system,sans-serif' font-size="10.5" fill="#52514e" text-anchor="start" font-weight="400">This system: scored, with authority-bounded repair</text><text x="0.0" y="91.0" font-family='"PingFang SC","Hiragino Sans GB","Noto Sans CJK SC",system-ui,-apple-system,sans-serif' font-size="12" fill="#141a22" text-anchor="start" font-weight="600">Assignment rate</text><text x="0.0" y="106.0" font-family='"PingFang SC","Hiragino Sans GB","Noto Sans CJK SC",system-ui,-apple-system,sans-serif' font-size="10" fill="#898781" text-anchor="start" font-weight="400">unassigned events count as missed</text><path d="M82.0,272.0 L82.0,146.6 Q82.0,142.6 86.0,142.6 L102.0,142.6 Q106.0,142.6 106.0,146.6 L106.0,272.0 Z" fill="#2a78d6"/><text x="94.0" y="137.6" font-family='"PingFang SC","Hiragino Sans GB","Noto Sans CJK SC",system-ui,-apple-system,sans-serif' font-size="9.5" fill="#141a22" text-anchor="middle" font-weight="600">0.574</text><path d="M108.0,272.0 L108.0,132.0 Q108.0,128.0 112.0,128.0 L128.0,128.0 Q132.0,128.0 132.0,132.0 L132.0,272.0 Z" fill="#eb6834"/><text x="120.0" y="123.0" font-family='"PingFang SC","Hiragino Sans GB","Noto Sans CJK SC",system-ui,-apple-system,sans-serif' font-size="9.5" fill="#141a22" text-anchor="middle" font-weight="600">0.639</text><line x1="0" y1="272" x2="214" y2="272" stroke="#c3c2b7" stroke-width="1"/><text x="268.0" y="91.0" font-family='"PingFang SC","Hiragino Sans GB","Noto Sans CJK SC",system-ui,-apple-system,sans-serif' font-size="12" fill="#141a22" text-anchor="start" font-weight="600">Urgent events left unserved</text><text x="268.0" y="106.0" font-family='"PingFang SC","Hiragino Sans GB","Noto Sans CJK SC",system-ui,-apple-system,sans-serif' font-size="10" fill="#898781" text-anchor="start" font-weight="400">out of 10 P0/P1 events</text><path d="M350.0,272.0 L350.0,132.0 Q350.0,128.0 354.0,128.0 L370.0,128.0 Q374.0,128.0 374.0,132.0 L374.0,272.0 Z" fill="#2a78d6"/><text x="362.0" y="123.0" font-family='"PingFang SC","Hiragino Sans GB","Noto Sans CJK SC",system-ui,-apple-system,sans-serif' font-size="9.5" fill="#141a22" text-anchor="middle" font-weight="600">6</text><path d="M376.0,272.0 L376.0,204.0 Q376.0,200.0 380.0,200.0 L396.0,200.0 Q400.0,200.0 400.0,204.0 L400.0,272.0 Z" fill="#eb6834"/><text x="388.0" y="195.0" font-family='"PingFang SC","Hiragino Sans GB","Noto Sans CJK SC",system-ui,-apple-system,sans-serif' font-size="9.5" fill="#141a22" text-anchor="middle" font-weight="600">3</text><line x1="268" y1="272" x2="482" y2="272" stroke="#c3c2b7" stroke-width="1"/><text x="536.0" y="91.0" font-family='"PingFang SC","Hiragino Sans GB","Noto Sans CJK SC",system-ui,-apple-system,sans-serif' font-size="12" fill="#141a22" text-anchor="start" font-weight="600">Existing orders affected</text><text x="536.0" y="106.0" font-family='"PingFang SC","Hiragino Sans GB","Noto Sans CJK SC",system-ui,-apple-system,sans-serif' font-size="10" fill="#898781" text-anchor="start" font-weight="400">other customers’ orders moved</text><rect x="618.0" y="271.0" width="24.0" height="1.0" fill="#2a78d6" rx="0"/><text x="630.0" y="267.0" font-family='"PingFang SC","Hiragino Sans GB","Noto Sans CJK SC",system-ui,-apple-system,sans-serif' font-size="9.5" fill="#141a22" text-anchor="middle" font-weight="600">0</text><path d="M644.0,272.0 L644.0,132.0 Q644.0,128.0 648.0,128.0 L664.0,128.0 Q668.0,128.0 668.0,132.0 L668.0,272.0 Z" fill="#eb6834"/><text x="656.0" y="123.0" font-family='"PingFang SC","Hiragino Sans GB","Noto Sans CJK SC",system-ui,-apple-system,sans-serif' font-size="9.5" fill="#141a22" text-anchor="middle" font-weight="600">6</text><line x1="536" y1="272" x2="750" y2="272" stroke="#c3c2b7" stroke-width="1"/><text x="804.0" y="91.0" font-family='"PingFang SC","Hiragino Sans GB","Noto Sans CJK SC",system-ui,-apple-system,sans-serif' font-size="12" fill="#141a22" text-anchor="start" font-weight="600">Added travel, total minutes</text><text x="804.0" y="106.0" font-family='"PingFang SC","Hiragino Sans GB","Noto Sans CJK SC",system-ui,-apple-system,sans-serif' font-size="10" fill="#898781" text-anchor="start" font-weight="400">vs. the baseline schedule</text><path d="M886.0,272.0 L886.0,146.8 Q886.0,142.8 890.0,142.8 L906.0,142.8 Q910.0,142.8 910.0,146.8 L910.0,272.0 Z" fill="#2a78d6"/><text x="898.0" y="137.8" font-family='"PingFang SC","Hiragino Sans GB","Noto Sans CJK SC",system-ui,-apple-system,sans-serif' font-size="9.5" fill="#141a22" text-anchor="middle" font-weight="600">1006</text><path d="M912.0,272.0 L912.0,132.0 Q912.0,128.0 916.0,128.0 L932.0,128.0 Q936.0,128.0 936.0,132.0 L936.0,272.0 Z" fill="#eb6834"/><text x="924.0" y="123.0" font-family='"PingFang SC","Hiragino Sans GB","Noto Sans CJK SC",system-ui,-apple-system,sans-serif' font-size="9.5" fill="#141a22" text-anchor="middle" font-weight="600">1121</text><line x1="804" y1="272" x2="1018" y2="272" stroke="#c3c2b7" stroke-width="1"/><text x="0.0" y="300.0" font-family='"PingFang SC","Hiragino Sans GB","Noto Sans CJK SC",system-ui,-apple-system,sans-serif' font-size="10" fill="#52514e" text-anchor="start" font-weight="400">Both strategies committed 0 plans with a hard-constraint or authority violation. Decision mix: baseline assign 35 · unresolved 26; this system auto 28 · manual 11 · unresolved 22.</text><text x="0.0" y="318.0" font-family='"SF Mono",Menlo,Consolas,monospace' font-size="9.5" fill="#898781" text-anchor="start" font-weight="400"> Source: data/evaluation/latest.json</text>
</svg>
