<svg xmlns="http://www.w3.org/2000/svg" viewBox="0 0 1020 318" width="1020" height="318" role="img" aria-label="Agent 成本与产出">
<title>Agent 成本与产出</title>
<rect x="0.0" y="0.0" width="1020.0" height="318.0" fill="#ffffff" rx="0"/>
<text x="0.0" y="14.0" font-family='"PingFang SC","Hiragino Sans GB","Noto Sans CJK SC",system-ui,-apple-system,sans-serif' font-size="12" fill="#141a22" text-anchor="start" font-weight="600">Cost and output of agent investigation as resources get scarcer</text><text x="0.0" y="29.0" font-family='"PingFang SC","Hiragino Sans GB","Noto Sans CJK SC",system-ui,-apple-system,sans-serif' font-size="10" fill="#898781" text-anchor="start" font-weight="400">Scenarios ordered from ample to scarce. Budget ceiling per wake-up: 12 tool calls / 3 plan searches / 2 transient retries</text><text x="0.0" y="73.0" font-family='"PingFang SC","Hiragino Sans GB","Noto Sans CJK SC",system-ui,-apple-system,sans-serif' font-size="12" fill="#141a22" text-anchor="start" font-weight="600">Tool calls per seed</text><text x="0.0" y="88.0" font-family='"PingFang SC","Hiragino Sans GB","Noto Sans CJK SC",system-ui,-apple-system,sans-serif' font-size="10" fill="#898781" text-anchor="start" font-weight="400">plan searches are a subset of these</text><rect x="0.0" y="97.0" width="9.0" height="9.0" fill="#2a78d6" rx="2"/><text x="13.0" y="104.0" font-family='"PingFang SC","Hiragino Sans GB","Noto Sans CJK SC",system-ui,-apple-system,sans-serif' font-size="10" fill="#52514e" text-anchor="start" font-weight="400">Tool calls</text><rect x="86.0" y="97.0" width="9.0" height="9.0" fill="#eb6834" rx="2"/><text x="99.0" y="104.0" font-family='"PingFang SC","Hiragino Sans GB","Noto Sans CJK SC",system-ui,-apple-system,sans-serif' font-size="10" fill="#52514e" text-anchor="start" font-weight="400">of which plan searches</text><path d="M23.3,258.0 L23.3,245.7 Q23.3,241.7 27.3,241.7 L43.3,241.7 Q47.3,241.7 47.3,245.7 L47.3,258.0 Z" fill="#2a78d6"/><text x="35.3" y="236.7" font-family='"PingFang SC","Hiragino Sans GB","Noto Sans CJK SC",system-ui,-apple-system,sans-serif' font-size="9.5" fill="#141a22" text-anchor="middle" font-weight="600">3</text><path d="M49.3,258.0 L49.3,254.4 Q49.3,250.4 53.3,250.4 L69.3,250.4 Q73.3,250.4 73.3,254.4 L73.3,258.0 Z" fill="#eb6834"/><text x="61.3" y="245.4" font-family='"PingFang SC","Hiragino Sans GB","Noto Sans CJK SC",system-ui,-apple-system,sans-serif' font-size="9.5" fill="#141a22" text-anchor="middle" font-weight="600">1.4</text><text x="48.3" y="272.0" font-family='"PingFang SC","Hiragino Sans GB","Noto Sans CJK SC",system-ui,-apple-system,sans-serif' font-size="10.5" fill="#52514e" text-anchor="middle" font-weight="400">relaxed</text><path d="M120.0,258.0 L120.0,204.5 Q120.0,200.5 124.0,200.5 L140.0,200.5 Q144.0,200.5 144.0,204.5 L144.0,258.0 Z" fill="#2a78d6"/><text x="132.0" y="195.5" font-family='"PingFang SC","Hiragino Sans GB","Noto Sans CJK SC",system-ui,-apple-system,sans-serif' font-size="9.5" fill="#141a22" text-anchor="middle" font-weight="600">10.6</text><path d="M146.0,258.0 L146.0,234.3 Q146.0,230.3 150.0,230.3 L166.0,230.3 Q170.0,230.3 170.0,234.3 L170.0,258.0 Z" fill="#eb6834"/><text x="158.0" y="225.3" font-family='"PingFang SC","Hiragino Sans GB","Noto Sans CJK SC",system-ui,-apple-system,sans-serif' font-size="9.5" fill="#141a22" text-anchor="middle" font-weight="600">5.1</text><text x="145.0" y="272.0" font-family='"PingFang SC","Hiragino Sans GB","Noto Sans CJK SC",system-ui,-apple-system,sans-serif' font-size="10.5" fill="#52514e" text-anchor="middle" font-weight="400">main</text><path d="M216.7,258.0 L216.7,134.0 Q216.7,130.0 220.7,130.0 L236.7,130.0 Q240.7,130.0 240.7,134.0 L240.7,258.0 Z" fill="#2a78d6"/><text x="228.7" y="125.0" font-family='"PingFang SC","Hiragino Sans GB","Noto Sans CJK SC",system-ui,-apple-system,sans-serif' font-size="9.5" fill="#141a22" text-anchor="middle" font-weight="600">23.6</text><path d="M242.7,258.0 L242.7,199.6 Q242.7,195.6 246.7,195.6 L262.7,195.6 Q266.7,195.6 266.7,199.6 L266.7,258.0 Z" fill="#eb6834"/><text x="254.7" y="190.6" font-family='"PingFang SC","Hiragino Sans GB","Noto Sans CJK SC",system-ui,-apple-system,sans-serif' font-size="9.5" fill="#141a22" text-anchor="middle" font-weight="600">11.5</text><text x="241.7" y="272.0" font-family='"PingFang SC","Hiragino Sans GB","Noto Sans CJK SC",system-ui,-apple-system,sans-serif' font-size="10.5" fill="#52514e" text-anchor="middle" font-weight="400">scarce</text><line x1="0" y1="258" x2="290" y2="258" stroke="#c3c2b7" stroke-width="1"/><text x="365.0" y="73.0" font-family='"PingFang SC","Hiragino Sans GB","Noto Sans CJK SC",system-ui,-apple-system,sans-serif' font-size="12" fill="#141a22" text-anchor="start" font-weight="600">Orchestration processing time (ms)</text><text x="365.0" y="88.0" font-family='"PingFang SC","Hiragino Sans GB","Noto Sans CJK SC",system-ui,-apple-system,sans-serif' font-size="10" fill="#898781" text-anchor="start" font-weight="400">excludes model latency</text><path d="M401.3,258.0 L401.3,245.3 Q401.3,241.3 405.3,241.3 L421.3,241.3 Q425.3,241.3 425.3,245.3 L425.3,258.0 Z" fill="#2a78d6"/><text x="413.3" y="236.3" font-family='"PingFang SC","Hiragino Sans GB","Noto Sans CJK SC",system-ui,-apple-system,sans-serif' font-size="9.5" fill="#141a22" text-anchor="middle" font-weight="600">4.2</text><text x="413.3" y="272.0" font-family='"PingFang SC","Hiragino Sans GB","Noto Sans CJK SC",system-ui,-apple-system,sans-serif' font-size="10.5" fill="#52514e" text-anchor="middle" font-weight="400">relaxed</text><path d="M498.0,258.0 L498.0,204.9 Q498.0,200.9 502.0,200.9 L518.0,200.9 Q522.0,200.9 522.0,204.9 L522.0,258.0 Z" fill="#2a78d6"/><text x="510.0" y="195.9" font-family='"PingFang SC","Hiragino Sans GB","Noto Sans CJK SC",system-ui,-apple-system,sans-serif' font-size="9.5" fill="#141a22" text-anchor="middle" font-weight="600">14.4</text><text x="510.0" y="272.0" font-family='"PingFang SC","Hiragino Sans GB","Noto Sans CJK SC",system-ui,-apple-system,sans-serif' font-size="10.5" fill="#52514e" text-anchor="middle" font-weight="400">main</text><path d="M594.7,258.0 L594.7,114.0 Q594.7,110.0 598.7,110.0 L614.7,110.0 Q618.7,110.0 618.7,114.0 L618.7,258.0 Z" fill="#2a78d6"/><text x="606.7" y="105.0" font-family='"PingFang SC","Hiragino Sans GB","Noto Sans CJK SC",system-ui,-apple-system,sans-serif' font-size="9.5" fill="#141a22" text-anchor="middle" font-weight="600">37.3</text><text x="606.7" y="272.0" font-family='"PingFang SC","Hiragino Sans GB","Noto Sans CJK SC",system-ui,-apple-system,sans-serif' font-size="10.5" fill="#52514e" text-anchor="middle" font-weight="400">scarce</text><line x1="365" y1="258" x2="655" y2="258" stroke="#c3c2b7" stroke-width="1"/><text x="730.0" y="73.0" font-family='"PingFang SC","Hiragino Sans GB","Noto Sans CJK SC",system-ui,-apple-system,sans-serif' font-size="12" fill="#141a22" text-anchor="start" font-weight="600">Investigation outcomes per seed</text><text x="730.0" y="88.0" font-family='"PingFang SC","Hiragino Sans GB","Noto Sans CJK SC",system-ui,-apple-system,sans-serif' font-size="10" fill="#898781" text-anchor="start" font-weight="400">count of the two terminal outcomes</text><rect x="730.0" y="97.0" width="9.0" height="9.0" fill="#2a78d6" rx="2"/><text x="743.0" y="104.0" font-family='"PingFang SC","Hiragino Sans GB","Noto Sans CJK SC",system-ui,-apple-system,sans-serif' font-size="10" fill="#52514e" text-anchor="start" font-weight="400">Served in alt. window</text><rect x="876.5" y="97.0" width="9.0" height="9.0" fill="#eb6834" rx="2"/><text x="889.5" y="104.0" font-family='"PingFang SC","Hiragino Sans GB","Noto Sans CJK SC",system-ui,-apple-system,sans-serif' font-size="10" fill="#52514e" text-anchor="start" font-weight="400">Human escalations</text><path d="M753.3,258.0 L753.3,254.2 Q753.3,250.2 757.3,250.2 L773.3,250.2 Q777.3,250.2 777.3,254.2 L777.3,258.0 Z" fill="#2a78d6"/><text x="765.3" y="245.2" font-family='"PingFang SC","Hiragino Sans GB","Noto Sans CJK SC",system-ui,-apple-system,sans-serif' font-size="9.5" fill="#141a22" text-anchor="middle" font-weight="600">0.2</text><path d="M779.3,258.0 L779.3,246.5 Q779.3,242.5 783.3,242.5 L799.3,242.5 Q803.3,242.5 803.3,246.5 L803.3,258.0 Z" fill="#eb6834"/><text x="791.3" y="237.5" font-family='"PingFang SC","Hiragino Sans GB","Noto Sans CJK SC",system-ui,-apple-system,sans-serif' font-size="9.5" fill="#141a22" text-anchor="middle" font-weight="600">0.4</text><text x="778.3" y="272.0" font-family='"PingFang SC","Hiragino Sans GB","Noto Sans CJK SC",system-ui,-apple-system,sans-serif' font-size="10.5" fill="#52514e" text-anchor="middle" font-weight="400">relaxed</text><path d="M850.0,258.0 L850.0,231.0 Q850.0,227.0 854.0,227.0 L870.0,227.0 Q874.0,227.0 874.0,231.0 L874.0,258.0 Z" fill="#2a78d6"/><text x="862.0" y="222.0" font-family='"PingFang SC","Hiragino Sans GB","Noto Sans CJK SC",system-ui,-apple-system,sans-serif' font-size="9.5" fill="#141a22" text-anchor="middle" font-weight="600">0.8</text><path d="M876.0,258.0 L876.0,211.6 Q876.0,207.6 880.0,207.6 L896.0,207.6 Q900.0,207.6 900.0,211.6 L900.0,258.0 Z" fill="#eb6834"/><text x="888.0" y="202.6" font-family='"PingFang SC","Hiragino Sans GB","Noto Sans CJK SC",system-ui,-apple-system,sans-serif' font-size="9.5" fill="#141a22" text-anchor="middle" font-weight="600">1.3</text><text x="875.0" y="272.0" font-family='"PingFang SC","Hiragino Sans GB","Noto Sans CJK SC",system-ui,-apple-system,sans-serif' font-size="10.5" fill="#52514e" text-anchor="middle" font-weight="400">main</text><path d="M946.7,258.0 L946.7,219.3 Q946.7,215.3 950.7,215.3 L966.7,215.3 Q970.7,215.3 970.7,219.3 L970.7,258.0 Z" fill="#2a78d6"/><text x="958.7" y="210.3" font-family='"PingFang SC","Hiragino Sans GB","Noto Sans CJK SC",system-ui,-apple-system,sans-serif' font-size="9.5" fill="#141a22" text-anchor="middle" font-weight="600">1.1</text><path d="M972.7,258.0 L972.7,134.0 Q972.7,130.0 976.7,130.0 L992.7,130.0 Q996.7,130.0 996.7,134.0 L996.7,258.0 Z" fill="#eb6834"/><text x="984.7" y="125.0" font-family='"PingFang SC","Hiragino Sans GB","Noto Sans CJK SC",system-ui,-apple-system,sans-serif' font-size="9.5" fill="#141a22" text-anchor="middle" font-weight="600">3.3</text><text x="971.7" y="272.0" font-family='"PingFang SC","Hiragino Sans GB","Noto Sans CJK SC",system-ui,-apple-system,sans-serif' font-size="10.5" fill="#52514e" text-anchor="middle" font-weight="400">scarce</text><line x1="730" y1="258" x2="1020" y2="258" stroke="#c3c2b7" stroke-width="1"/><text x="0.0" y="288.0" font-family='"PingFang SC","Hiragino Sans GB","Noto Sans CJK SC",system-ui,-apple-system,sans-serif' font-size="10" fill="#52514e" text-anchor="start" font-weight="400">In the scarce scenario most investigations end in a human escalation. When resources are genuinely insufficient that is the intended outcome: an exhausted budget does not enter a</text><text x="0.0" y="301.5" font-family='"PingFang SC","Hiragino Sans GB","Noto Sans CJK SC",system-ui,-apple-system,sans-serif' font-size="10" fill="#52514e" text-anchor="start" font-weight="400">retry loop, it produces an evidenced human case.</text><text x="0.0" y="312.0" font-family='"SF Mono",Menlo,Consolas,monospace' font-size="9.5" fill="#898781" text-anchor="start" font-weight="400">Source: data/evaluation/latest_v3.json · config/policy.yaml → agent</text>
</svg>
